<svg xmlns="http://www.w3.org/2000/svg" width="2000" height="2000">
  <defs/>
  <defs>
    <clipPath id="a" clipPathUnits="userSpaceOnUse">
      <path d="M0 1500h1500V0H0z"/>
    </clipPath>
    <clipPath id="b" clipPathUnits="userSpaceOnUse">
      <path d="M351.5 1181h1119.7V28.9H351.5z"/>
    </clipPath>
    <clipPath id="c" clipPathUnits="userSpaceOnUse">
      <path d="M33.7 1471.2h892V833.4h-892z"/>
    </clipPath>
    <clipPath id="d" clipPathUnits="userSpaceOnUse">
      <path d="M76 1426.3h1021.8V805.1H75.9z"/>
    </clipPath>
    <clipPath id="e" clipPathUnits="userSpaceOnUse">
      <path d="M348 1123.8h884V336.2H348z"/>
    </clipPath>
    <clipPath id="f" clipPathUnits="userSpaceOnUse">
      <path d="M964 1111.9H1083v-474H964z"/>
    </clipPath>
    <clipPath id="g" clipPathUnits="userSpaceOnUse">
      <path d="M751.5 1111.9h118.8v-474H751.5z"/>
    </clipPath>
    <clipPath id="h" clipPathUnits="userSpaceOnUse">
      <path d="M538.9 1111.9h118.9v-474h-119z"/>
    </clipPath>
  </defs>
  <g clip-path="url(#a)" transform="matrix(1.33333 0 0 -1.33333 0 2000)">
    <path fill="#c30019" d="M1219.7 750.1a467.6 467.6 0 10-935.3 0 467.6 467.6 0 00935.3 0"/>
    <path fill="#c30019" d="M299.6 718.4c-.2.3 0 .7 0 1.2-.9 9.9-1.3 20.2-1.3 30.3a452.2 452.2 0 00520.5 446.7c.5 0 .7 0 1-.3h.2a453.8 453.8 0 00333-242l.5-1 .2-.4c0-.4.4-1.1.7-1.8a448.5 448.5 0 0047.3-201.2c0-249-202.5-451.6-451.6-451.6a448 448 0 00-273.5 92.5l-1.4.9-.9.7-.6.4a450.6 450.6 0 00-174 325.6m1028 462.7l-.4.4c-.5 1-1.1 1.8-1.6 2.5a724.7 724.7 0 01-398.2 265.2l-1.8.5a728.5 728.5 0 01-175.6 21.6c-369.4 0-675-279.4-716.4-637.9l-.2-.9A721.4 721.4 0 01350.2 150l.2-.2.4-.2.7-.2c.9-.5 1.6-1.2 2.5-1.6a468 468 0 0122.4-14.2c7.2-4.2 14.2-8.5 21.3-12.5l22.5-12.2c7.6-4 15.3-7.8 23.1-11.4L467 86.9c7.9-3.6 16-6.7 23.8-9.8a690.7 690.7 0 0155-18.6l2.3-.8c8.8-2.7 17.7-5.1 26.7-7.1 1.6-.7 3.4-1 5-1.4 6.7-1.6 13.7-3.4 20.6-4.7a528 528 0 0145.4-8.1l13.5-1.8c7-1.1 14.1-1.8 21.3-2.5l16-1.3c6.5-.5 12.7-1 19.3-1.1 1-.3 2.2-.3 3.5-.3 10.4-.4 20.5-.6 30.8-.6 397.5 0 721.1 323.4 721.1 721a717.2 717.2 0 01-143.5 431.3"/>
    <g clip-path="url(#b)" opacity=".3">
      <path d="M1471.2 749.9c0-397.7-323.6-721.1-721-721.1a716.7 716.7 0 00-398.7 120.6 762.4 762.4 0 0175.2-40A741.2 741.2 0 01644 46.7 666 666 0 01794.4 44c53.2 3.2 108.2 16.2 163.7 32 54.5 19.5 110.2 42.4 161 75.8 26.7 14.6 49.8 34.8 74.8 52.8 11.9 9.9 22.7 20.7 34.3 31l17.1 15.5c5.4 5.4 10.3 11.5 15.5 17l31.2 34 41.8 55.2 11.9 19.6c7.9 13 16 26 23.8 39 6.5 13.7 13.2 27.2 19.8 41l9.8 20.1 8.1 21 15.7 41.5 11.5 42.2c8.8 27.8 11.2 55.9 16.6 83 3 13.3 3 28 4.3 41.6l2.7 41.3a705.2 705.2 0 01-12.1 149.2 749.7 749.7 0 01-75 213.3 1019.7 1019.7 0 01-43.2 71 717.2 717.2 0 00143.5-431.2"/>
    </g>
    <g clip-path="url(#c)" opacity=".6">
      <path fill="#fff" d="M925.7 1449.7c-5.4.9-23.1 3.8-50.5 7.2a734.8 734.8 0 01-137.7 3.3c-28.3-2.2-59-4.2-91-10.8-15.9-2.4-32.3-5.1-48.4-10-16.4-5-33.5-8.1-50.1-13.8-16.6-5.8-33.5-11.9-50.5-18.2-16.7-7-33-15-49.9-22.4-17-7-32.6-17.7-49.2-26.5-16.6-8.5-31.6-19.8-47-30.3l-23.3-15.7-21.8-17.8c-14.5-11.7-29.1-23.1-42-36.4a868.2 868.2 0 01-73.8-79.2 2569 2569 0 00-30.8-41.8c-9.9-14-18-28.5-26.7-42a327.8 327.8 0 01-23-41.3c-6.7-13.7-14.3-26.5-19.7-39.8l-15.5-37.7a270.3 270.3 0 01-12.6-34.6c-6.5-22-14.1-41.1-16.8-57.7-6.3-28.8-10.8-46.7-11.7-50.8 41.3 358.5 347 637.8 716.4 637.8a728.5 728.5 0 00175.6-21.5"/>
    </g>
    <g clip-path="url(#d)" opacity=".4">
      <path fill="#fff" d="M1097.8 1329.7A824.2 824.2 0 0176 805.1c.4 6.1 1 12.2 1.7 18v.4l.7 4.8a675.7 675.7 0 00671.7 598c54 0 107.6-6.5 160.1-19l1.2-.5 2.9-.7 1.3-.4h1a674 674 0 00181.2-76"/>
    </g>
    <g clip-path="url(#e)" opacity=".4">
      <path d="M1187.3 353h-157a27.9 27.9 0 00-27.7 27.9v726H1215V381a27.9 27.9 0 00-27.8-27.8"/>
      <path d="M1019.4 1090V392.8a22.8 22.8 0 0122.8-22.8h133.3a22.8 22.8 0 0122.8 22.8V1090zm156.1-753.8h-133.3a56.5 56.5 0 00-56.5 56.5v731H1232v-731a56.5 56.5 0 00-56.5-56.5"/>
      <path d="M974.8 353h-157A27.9 27.9 0 00790 381v726h212.6V381a27.9 27.9 0 00-27.8-27.8"/>
      <path d="M806.8 1090V392.8a22.8 22.8 0 0122.8-22.8H963a22.8 22.8 0 0122.8 22.8V1090zM963 336.3H829.6a56.5 56.5 0 00-56.4 56.5v731h246.2v-731a56.5 56.5 0 00-56.5-56.5"/>
      <path d="M762.2 353h-157a27.9 27.9 0 00-27.8 27.9v726H790V381a27.9 27.9 0 00-27.8-27.8"/>
      <path d="M594.3 1090V392.8a22.8 22.8 0 0122.8-22.8h133.3a22.8 22.8 0 0122.8 22.8V1090zm156-753.8H617.2a56.5 56.5 0 00-56.5 56.5v731h246.2v-731a56.5 56.5 0 00-56.4-56.5"/>
      <path d="M549.6 353h-157A27.9 27.9 0 00365 381v726h212.5V381a27.9 27.9 0 00-27.8-27.8"/>
      <path d="M381.7 1090V392.8a22.8 22.8 0 0122.8-22.8h133.3a22.8 22.8 0 0122.8 22.8V1090zm156.1-753.8H404.5a56.5 56.5 0 00-56.5 56.5v731h246.3v-731a56.5 56.5 0 00-56.5-56.5"/>
      <g clip-path="url(#f)" opacity=".4">
        <path d="M964 1111.9V665.3c0-15 12.3-27.3 27.4-27.3h64.1c15.1 0 27.4 12.2 27.4 27.3V1112z"/>
      </g>
      <g clip-path="url(#g)" opacity=".4">
        <path d="M751.5 1111.9V665.3c0-15 12.2-27.3 27.3-27.3H843c15 0 27.3 12.2 27.3 27.3V1112z"/>
      </g>
      <g clip-path="url(#h)" opacity=".4">
        <path d="M538.9 1111.9V665.3c0-15 12.3-27.3 27.3-27.3h64.2c15 0 27.4 12.2 27.4 27.3V1112z"/>
      </g>
      <g>
        <path d="M943.1 1111.9V665.3c0-15 12.3-27.3 27.4-27.3h64.1c15.1 0 27.4 12.2 27.4 27.3V1112z"/>
      </g>
      <g>
        <path d="M730.6 1111.9V665.3c0-15 12.2-27.3 27.3-27.3h64.2c15 0 27.3 12.2 27.3 27.3V1112z"/>
      </g>
      <g>
        <path d="M518 1111.9V665.3c0-15 12.3-27.3 27.4-27.3h64.1c15.1 0 27.4 12.2 27.4 27.3V1112z"/>
      </g>
    </g>
    <path fill="#fff" d="M1147.3 373h-157a27.9 27.9 0 00-27.7 27.9v726H1175V401a27.9 27.9 0 00-27.8-27.8"/>
    <path fill="#fff" d="M934.8 373h-157A27.9 27.9 0 00750 401v726h212.6V401a27.9 27.9 0 00-27.8-27.8"/>
    <path fill="#fff" d="M722.2 373h-157a27.9 27.9 0 00-27.8 27.9v726H750V401a27.9 27.9 0 00-27.8-27.8"/>
    <path fill="#fff" d="M509.6 373h-157A27.9 27.9 0 00325 401v726h212.5V401a27.9 27.9 0 00-27.8-27.8"/>
    <path fill="gray" d="M924 1131.9V685.3c0-15 12.3-27.3 27.4-27.3h64.1c15.1 0 27.4 12.2 27.4 27.3V1132zM711.5 1131.9V685.3c0-15 12.2-27.3 27.3-27.3H803c15 0 27.3 12.2 27.3 27.3V1132zM498.9 1131.9V685.3c0-15 12.3-27.3 27.3-27.3h64.2c15 0 27.4 12.2 27.4 27.3V1132z"/>
    <path d="M903.1 1131.9V685.3c0-15 12.3-27.3 27.4-27.3h64.1c15.1 0 27.4 12.2 27.4 27.3V1132zM690.6 1131.9V685.3c0-15 12.2-27.3 27.3-27.3h64.2c15 0 27.3 12.2 27.3 27.3V1132zM478 1131.9V685.3c0-15 12.3-27.3 27.4-27.3h64.1c15.1 0 27.4 12.2 27.4 27.3V1132z"/>
    <g>
      <path d="M979.4 1110V412.8a22.8 22.8 0 0122.8-22.8h133.3a22.8 22.8 0 0122.8 22.8V1110zm156.1-753.8h-133.3a56.5 56.5 0 00-56.5 56.5v731H1192v-731a56.5 56.5 0 00-56.5-56.5"/>
    </g>
    <g>
      <path d="M766.8 1110V412.8a22.8 22.8 0 0122.8-22.8H923a22.8 22.8 0 0122.8 22.8V1110zM923 356.3H789.6a56.5 56.5 0 00-56.4 56.5v731h246.2v-731a56.5 56.5 0 00-56.5-56.5"/>
    </g>
    <g>
      <path d="M554.3 1110V412.8a22.8 22.8 0 0122.8-22.8h133.3a22.8 22.8 0 0122.8 22.8V1110zm156-753.8H577.2a56.5 56.5 0 00-56.5 56.5v731h246.2v-731a56.5 56.5 0 00-56.4-56.5"/>
    </g>
    <g>
      <path d="M341.7 1110V412.8a22.8 22.8 0 0122.8-22.8h133.3a22.8 22.8 0 0122.8 22.8V1110zm156.1-753.8H364.5a56.5 56.5 0 00-56.5 56.5v731h246.3v-731a56.5 56.5 0 00-56.5-56.5"/>
    </g>
  </g>
</svg>
